<svg version="1.1" viewBox="0.0 0.0 635.0 393.0" fill="none" stroke="none" stroke-linecap="square" stroke-miterlimit="10" width="635" height="393" xmlns:xlink="http://www.w3.org/1999/xlink" xmlns="http://www.w3.org/2000/svg"><path fill="#ffffff" d="M0 0L635.0 0L635.0 393.0L0 393.0L0 0Z" fill-rule="nonzero"/><path fill="#ffffff" d="M19.65 56.75L615.35004 56.75L615.35004 344.25L19.65 344.25L19.65 56.75Z" fill-rule="nonzero"/><path stroke="#cccccc" stroke-width="1.0" stroke-linecap="butt" d="M318.0 201.0C318.0 201.0 318.0 201.0 318.0 201.0C318.0 201.0 318.0 201.0 318.0 201.0C318.0 201.0 318.0 201.0 318.0 201.0C318.0 201.0 318.0 201.0 318.0 201.0" fill-rule="nonzero"/><path fill="#000000" d="M315.0625 194.35938Q315.0625 196.26562 314.40625 197.20312Q313.76562 198.125 312.375 198.125Q311.01562 198.125 310.35938 197.21875Q309.70312 196.3125 309.67188 194.5L309.67188 193.0625Q309.67188 191.17188 310.3125 190.26562Q310.96875 189.34375 312.35938 189.34375Q313.73438 189.34375 314.39062 190.23438Q315.04688 191.10938 315.0625 192.95312L315.0625 194.35938ZM313.96875 192.875Q313.96875 191.5 313.57812 190.875Q313.20312 190.23438 312.35938 190.23438Q311.53125 190.23438 311.14062 190.875Q310.76562 191.5 310.76562 192.79688L310.76562 194.53125Q310.76562 195.90625 311.15625 196.57812Q311.5625 197.23438 312.375 197.23438Q313.17188 197.23438 313.5625 196.60938Q313.95312 195.98438 313.96875 194.65625L313.96875 192.875Z" fill-rule="nonzero"/><path stroke="#cccccc" stroke-width="1.0" stroke-linecap="butt" d="M340.35 201.0C340.35 188.65643 330.34357 178.65 318.0 178.65C305.65643 178.65 295.65 188.65643 295.65 201.0C295.65 213.34357 305.65643 223.35 318.0 223.35C330.34357 223.35 340.35 213.34357 340.35 201.0" fill-rule="nonzero"/><path fill="#000000" d="M313.26562 175.65L312.1875 175.65L312.1875 168.43124L310.0 169.22812L310.0 168.24374L313.10938 167.07187L313.26562 167.07187L313.26562 175.65Z" fill-rule="nonzero"/><path stroke="#cccccc" stroke-width="1.0" stroke-linecap="butt" d="M362.7 201.0C362.7 176.31287 342.68713 156.3 318.0 156.3C293.31287 156.3 273.3 176.31287 273.3 201.0C273.3 225.68713 293.31287 245.7 318.0 245.7C342.68713 245.7 362.7 225.68713 362.7 201.0" fill-rule="nonzero"/><path fill="#000000" d="M315.29688 153.3L309.70312 153.3L309.70312 152.51875L312.65625 149.2375Q313.3125 148.4875 313.5625 148.03438Q313.8125 147.56563 313.8125 147.06563Q313.8125 146.39375 313.40625 145.97188Q313.01562 145.53438 312.32812 145.53438Q311.53125 145.53438 311.07812 146.00313Q310.625 146.45625 310.625 147.28438L309.54688 147.28438Q309.54688 146.09688 310.29688 145.37813Q311.0625 144.64375 312.32812 144.64375Q313.53125 144.64375 314.21875 145.26875Q314.90625 145.89375 314.90625 146.94063Q314.90625 148.19063 313.29688 149.94063L311.01562 152.40938L315.29688 152.40938L315.29688 153.3Z" fill-rule="nonzero"/><path stroke="#cccccc" stroke-width="1.0" stroke-linecap="butt" d="M385.05 201.0C385.05 163.96931 355.0307 133.95 318.0 133.95C280.9693 133.95 250.95 163.96931 250.95 201.0C250.95 238.03069 280.9693 268.05 318.0 268.05C355.0307 268.05 385.05 238.03069 385.05 201.0" fill-rule="nonzero"/><path fill="#000000" d="M311.28125 126.15312L312.09375 126.15312Q312.875 126.1375 313.3125 125.74687Q313.75 125.35625 313.75 124.68437Q313.75 123.18437 312.25 123.18437Q311.54688 123.18437 311.125 123.59062Q310.71875 123.99687 310.71875 124.65312L309.625 124.65312Q309.625 123.6375 310.35938 122.96562Q311.10938 122.29375 312.25 122.29375Q313.45312 122.29375 314.14062 122.93437Q314.82812 123.575 314.82812 124.71562Q314.82812 125.27812 314.46875 125.79375Q314.10938 126.30937 313.48438 126.575Q314.1875 126.79375 314.5625 127.30937Q314.95312 127.825 314.95312 128.575Q314.95312 129.71562 314.20312 130.40312Q313.45312 131.075 312.25 131.075Q311.0625 131.075 310.29688 130.41875Q309.54688 129.7625 309.54688 128.7L310.64062 128.7Q310.64062 129.37187 311.07812 129.77812Q311.51562 130.18437 312.26562 130.18437Q313.04688 130.18437 313.45312 129.77812Q313.875 129.35625 313.875 128.59062Q313.875 127.85625 313.42188 127.46562Q312.96875 127.05937 312.09375 127.04375L311.28125 127.04375L311.28125 126.15312Z" fill-rule="nonzero"/><path stroke="#cccccc" stroke-width="1.0" stroke-linecap="butt" d="M407.4 201.0C407.4 151.62575 367.37427 111.6 318.0 111.6C268.62573 111.6 228.6 151.62575 228.6 201.0C228.6 250.37425 268.62573 290.4 318.0 290.4C367.37427 290.4 407.4 250.37425 407.4 201.0" fill-rule="nonzero"/><path fill="#000000" d="M314.28125 105.74062L315.46875 105.74062L315.46875 106.61562L314.28125 106.61562L314.28125 108.6L313.20312 108.6L313.20312 106.61562L309.3125 106.61562L309.3125 105.975L313.125 100.06875L314.28125 100.06875L314.28125 105.74062ZM310.54688 105.74062L313.20312 105.74062L313.20312 101.55312L313.0625 101.7875L310.54688 105.74062Z" fill-rule="nonzero"/><path stroke="#cccccc" stroke-width="1.0" stroke-linecap="butt" d="M429.75 201.0C429.75 139.28218 379.71783 89.25 318.0 89.25C256.28217 89.25 206.25 139.28218 206.25 201.0C206.25 262.71783 256.28217 312.75 318.0 312.75C379.71783 312.75 429.75 262.71783 429.75 201.0" fill-rule="nonzero"/><path fill="#000000" d="M310.20312 81.96875L310.64062 77.71875L315.01562 77.71875L315.01562 78.71875L311.5625 78.71875L311.29688 81.046875Q311.9375 80.671875 312.73438 80.671875Q313.89062 80.671875 314.57812 81.453125Q315.26562 82.21875 315.26562 83.53125Q315.26562 84.84375 314.54688 85.609375Q313.84375 86.375 312.5625 86.375Q311.4375 86.375 310.71875 85.75Q310.0 85.109375 309.90625 84.0L310.92188 84.0Q311.03125 84.734375 311.45312 85.109375Q311.875 85.484375 312.5625 85.484375Q313.3125 85.484375 313.75 84.96875Q314.1875 84.453125 314.1875 83.546875Q314.1875 82.6875 313.71875 82.171875Q313.25 81.65625 312.46875 81.65625Q311.76562 81.65625 311.35938 81.953125L311.07812 82.1875L310.20312 81.96875Z" fill-rule="nonzero"/><path stroke="#cccccc" stroke-width="1.0" stroke-linecap="butt" d="M318.0 201.0L318.0 89.0" fill-rule="nonzero"/><path fill="#000000" d="M304.3125 53.828125Q303.75 52.65625 302.71875 51.71875L303.51562 51.015625Q304.45312 51.859375 305.20312 53.171875L304.3125 53.828125ZM297.98438 50.359375L297.04688 50.359375L297.04688 47.546875Q296.29688 48.671875 295.17188 49.5625L294.5625 48.765625Q296.34375 47.40625 297.0 46.046875L294.98438 46.046875L294.98438 45.15625L297.04688 45.15625L297.04688 43.75L297.9375 43.75Q298.3125 43.796875 297.98438 44.03125L297.98438 45.15625L299.71875 45.15625L299.71875 46.046875L297.98438 46.046875L297.98438 46.65625Q299.20312 47.171875 299.90625 47.875L299.29688 48.71875Q298.82812 48.15625 297.98438 47.640625L297.98438 50.359375ZM303.70312 50.125L300.98438 50.125L300.98438 50.40625L300.1875 50.40625L300.1875 44.359375L304.5 44.359375L304.5 50.40625L303.70312 50.40625L303.70312 50.125ZM300.98438 46.0L303.70312 46.0L303.70312 45.109375L300.98438 45.109375L300.98438 46.0ZM300.98438 47.6875L303.70312 47.6875L303.70312 46.75L300.98438 46.75L300.98438 47.6875ZM300.98438 49.375L303.70312 49.375L303.70312 48.4375L300.98438 48.4375L300.98438 49.375ZM299.39062 50.21875Q300.32812 50.921875 301.03125 51.953125L300.1875 52.609375Q299.625 51.625 298.73438 50.875L299.39062 50.21875ZM298.21875 50.921875Q298.59375 50.96875 298.26562 51.203125L298.26562 53.125Q298.26562 53.453125 298.54688 53.453125L301.54688 53.453125Q301.92188 53.453125 302.10938 52.515625L303.04688 52.84375Q302.8125 54.34375 301.96875 54.34375L298.17188 54.34375Q297.32812 54.34375 297.32812 53.5L297.32812 50.921875L298.21875 50.921875ZM296.8125 51.53125Q297.09375 51.671875 296.76562 51.765625Q296.4375 52.984375 295.78125 54.109375L294.89062 53.546875Q295.64062 52.375 295.875 51.15625L296.8125 51.53125ZM307.125 53.3125Q310.21875 52.65625 312.23438 50.734375L312.0 50.3125Q310.03125 51.90625 307.64062 52.328125L307.26562 51.4375Q309.89062 50.921875 311.53125 49.609375L311.20312 49.28125Q309.51562 50.265625 307.3125 50.734375L306.9375 49.890625Q309.5625 49.375 311.10938 48.390625L308.4375 48.390625L308.4375 46.890625Q307.96875 47.3125 307.17188 47.734375L306.70312 46.796875Q308.90625 45.625 310.03125 43.703125L311.10938 43.890625Q311.29688 44.078125 310.96875 44.125Q310.82812 44.3125 310.6875 44.453125L313.3125 44.453125L313.5 44.21875L314.34375 44.734375Q314.53125 44.921875 314.20312 44.96875L313.3125 46.0L316.17188 46.0L316.17188 48.390625L312.70312 48.390625L311.90625 48.859375Q312.46875 49.234375 312.84375 49.796875Q314.0625 49.28125 315.375 48.4375L316.125 49.234375Q316.125 49.46875 315.84375 49.375Q314.8125 49.9375 313.73438 50.453125Q315.23438 51.71875 317.48438 52.796875L316.96875 53.828125Q314.76562 52.75 313.40625 51.25Q313.59375 51.90625 313.59375 52.375Q313.59375 54.296875 312.51562 54.53125Q312.04688 54.625 311.10938 54.390625L311.10938 53.40625Q311.625 53.59375 312.04688 53.59375Q312.60938 53.59375 312.60938 52.375Q312.60938 51.90625 312.51562 51.671875Q310.5 53.5 307.54688 54.34375L307.125 53.3125ZM311.76562 46.75L309.23438 46.75L309.23438 47.640625L311.76562 47.640625L311.76562 46.75ZM315.375 46.75L312.5625 46.75L312.5625 47.640625L315.375 47.640625L315.375 46.75ZM312.89062 45.203125L310.125 45.203125Q309.75 45.625 309.375 46.0L312.1875 46.0L312.89062 45.203125ZM328.5 47.96875Q328.17188 49.1875 327.28125 49.1875L325.5 49.1875Q324.60938 49.1875 324.60938 48.296875L324.60938 46.0L323.10938 46.0L323.10938 46.5625Q323.10938 48.671875 320.01562 49.75L319.54688 48.859375Q322.17188 48.0625 322.17188 46.5625L322.17188 46.0L320.01562 46.0L320.01562 47.59375L318.9375 47.59375L318.9375 45.109375L323.4375 45.109375L323.4375 43.796875L324.46875 43.796875Q324.84375 43.84375 324.51562 44.078125L324.51562 45.109375L329.01562 45.109375L329.01562 47.3125L327.9375 47.3125L327.9375 46.0L325.54688 46.0L325.54688 47.96875Q325.54688 48.296875 325.96875 48.296875L327.0 48.296875Q327.46875 48.296875 327.60938 47.59375L328.5 47.96875ZM329.20312 53.21875L329.20312 54.25L318.79688 54.25L318.79688 53.21875L323.48438 53.21875L323.48438 51.203125L319.92188 51.203125L319.92188 50.171875L327.98438 50.171875L327.98438 51.203125L324.42188 51.203125L324.42188 53.21875L329.20312 53.21875Z" fill-rule="nonzero"/><path fill="#000000" d="M338.34375 46.84375Q338.29688 47.734375 338.29688 48.390625L338.29688 50.875Q338.29688 51.484375 338.34375 52.328125L333.60938 52.328125Q333.65625 51.484375 333.65625 50.828125L333.65625 48.390625Q333.65625 47.734375 333.60938 46.84375L338.34375 46.84375ZM340.875 44.359375Q340.82812 45.25 340.82812 46.140625L340.82812 53.03125Q340.875 54.109375 340.23438 54.34375Q339.60938 54.578125 338.85938 54.671875Q338.8125 54.109375 338.48438 53.546875Q339.375 53.59375 339.625 53.453125Q339.89062 53.3125 339.89062 52.84375L339.89062 45.15625L337.07812 45.15625Q335.95312 45.15625 334.96875 45.203125L334.96875 44.3125Q335.95312 44.359375 337.07812 44.359375L340.875 44.359375ZM331.03125 54.484375Q331.125 53.546875 331.125 52.515625L331.125 47.59375Q331.125 46.609375 331.03125 45.953125L332.10938 45.953125Q332.0625 46.65625 332.0625 47.3125L332.0625 52.5625Q332.0625 53.5 332.10938 54.484375L331.03125 54.484375ZM337.40625 51.578125L337.40625 49.84375L334.54688 49.84375L334.54688 51.578125L337.40625 51.578125ZM337.40625 49.09375L337.40625 47.59375L334.54688 47.59375L334.54688 49.09375L337.40625 49.09375ZM332.85938 43.5625Q333.28125 44.125 334.17188 45.34375Q333.65625 45.578125 333.1875 45.859375Q332.71875 44.921875 332.01562 44.078125Q332.53125 43.703125 332.85938 43.5625Z" fill-rule="nonzero"/><path stroke="#cccccc" stroke-width="1.0" stroke-linecap="butt" d="M318.0 201.0L424.0 166.0" fill-rule="nonzero"/><path fill="#000000" d="M443.20312 149.35938Q443.15625 149.96875 443.15625 151.14062L443.15625 158.3125Q443.15625 159.0625 442.5625 159.3125Q441.98438 159.57812 441.14062 159.67188Q441.04688 159.25 440.67188 158.6875Q441.65625 158.6875 441.95312 158.54688Q442.26562 158.40625 442.26562 157.79688L442.26562 150.10938L438.375 150.10938Q437.29688 150.10938 436.59375 150.15625L436.59375 149.3125Q437.20312 149.35938 438.42188 149.35938L443.20312 149.35938ZM440.67188 153.34375Q440.625 153.71875 440.625 154.60938L440.625 155.5Q440.625 156.625 440.67188 157.60938L439.82812 157.60938L439.82812 156.95312L437.95312 156.95312L437.95312 157.79688L437.10938 157.79688Q437.15625 157.0 437.15625 155.78125L437.15625 154.65625Q437.15625 153.95312 437.10938 153.34375L440.67188 153.34375ZM435.09375 152.21875Q435.04688 153.15625 435.04688 154.1875L435.04688 157.375Q435.51562 157.0 436.21875 156.29688Q436.35938 156.67188 436.6875 157.04688Q435.9375 157.65625 435.42188 158.17188Q434.90625 158.6875 434.34375 159.29688Q434.01562 158.82812 433.73438 158.5Q433.96875 158.21875 434.0625 157.98438Q434.15625 157.75 434.15625 157.32812L434.15625 152.96875L433.6875 152.96875Q433.54688 152.96875 432.60938 153.01562L432.60938 152.17188Q433.26562 152.21875 433.6875 152.21875L435.09375 152.21875ZM439.82812 156.20312L439.82812 154.04688L437.95312 154.04688L437.95312 156.20312L439.82812 156.20312ZM440.34375 151.375Q440.8125 151.375 441.42188 151.32812L441.42188 152.17188Q440.90625 152.125 440.0625 152.125L438.0 152.125Q437.48438 152.125 436.59375 152.17188L436.59375 151.32812Q437.48438 151.375 438.09375 151.375L440.34375 151.375ZM434.34375 148.65625Q435.1875 149.96875 435.46875 150.48438Q435.04688 150.71875 434.67188 151.04688Q433.96875 149.64062 433.59375 149.17188Q434.01562 148.9375 434.34375 148.65625ZM452.8125 149.73438Q453.75 149.73438 454.82812 149.6875L454.82812 150.57812Q453.75 150.53125 452.8125 150.53125L449.53125 150.53125L449.53125 158.3125L453.09375 158.3125Q454.07812 158.3125 455.15625 158.26562L455.15625 159.20312Q454.07812 159.15625 453.28125 159.15625L448.59375 159.15625Q448.64062 157.75 448.64062 156.95312L448.64062 151.70312Q448.64062 150.625 448.59375 149.73438L452.8125 149.73438ZM448.07812 155.59375Q446.85938 157.51562 446.4375 158.17188Q446.01562 158.82812 445.54688 159.48438Q445.125 159.01562 444.70312 158.82812Q445.35938 158.07812 445.98438 157.23438Q446.625 156.39062 447.375 154.9375Q447.60938 155.21875 448.07812 155.59375ZM445.17188 152.07812Q446.20312 152.59375 447.375 153.34375Q447.14062 153.57812 446.8125 154.1875Q445.82812 153.4375 444.65625 152.875Q444.89062 152.59375 445.17188 152.07812ZM445.78125 149.03125Q446.71875 149.64062 447.79688 150.48438Q447.375 150.90625 447.14062 151.23438Q446.20312 150.34375 445.21875 149.73438Q445.59375 149.3125 445.78125 149.03125Z" fill-rule="nonzero"/><path fill="#000000" d="M462.46875 151.65625L462.46875 152.92188L465.79688 152.92188L465.79688 153.95312L462.46875 153.95312L462.46875 155.35938L466.96875 155.35938L466.96875 156.39062L462.46875 156.39062L462.46875 159.53125L461.39062 159.53125L461.39062 156.39062L456.9375 156.39062L456.9375 155.35938L461.39062 155.35938L461.39062 153.95312L458.0625 153.95312L458.0625 152.92188L461.39062 152.92188L461.39062 151.65625L457.59375 151.65625L457.59375 150.625L461.39062 150.625L461.39062 148.84375L462.42188 148.84375Q462.79688 148.89062 462.46875 149.125L462.46875 150.625L466.35938 150.625L466.35938 151.65625L462.46875 151.65625ZM478.26562 159.29688L477.32812 159.29688L477.32812 159.0625L470.71875 159.0625L470.71875 159.53125L469.78125 159.53125L469.78125 155.3125L478.26562 155.3125L478.26562 159.29688ZM477.5625 151.9375L470.4375 151.9375L470.4375 151.1875L477.5625 151.1875L477.5625 151.9375ZM474.42188 148.70312Q474.79688 148.75 474.46875 148.98438L474.46875 149.6875L479.0625 149.6875L479.0625 151.65625L478.125 151.65625L478.125 150.4375L469.82812 150.4375L469.82812 151.79688L468.89062 151.79688L468.89062 149.6875L473.53125 149.6875L473.53125 148.70312L474.42188 148.70312ZM476.20312 154.14062L476.20312 153.20312L471.79688 153.20312L471.79688 154.14062L476.20312 154.14062ZM477.14062 152.64062L477.14062 154.70312L470.85938 154.70312L470.85938 152.64062L477.14062 152.64062ZM477.32812 158.3125L477.32812 157.46875L474.46875 157.46875L474.46875 158.3125L477.32812 158.3125ZM477.32812 156.90625L477.32812 156.0625L474.46875 156.0625L474.46875 156.90625L477.32812 156.90625ZM473.53125 156.90625L473.53125 156.0625L470.71875 156.0625L470.71875 156.90625L473.53125 156.90625ZM473.53125 158.3125L473.53125 157.46875L470.71875 157.46875L470.71875 158.3125L473.53125 158.3125ZM490.96875 159.57812Q488.71875 159.29688 486.98438 158.40625Q485.34375 159.39062 483.04688 159.625L482.67188 158.64062Q484.78125 158.45312 486.1875 157.75Q485.4375 157.0 484.82812 156.15625L483.51562 156.15625L483.51562 155.40625L489.0 155.40625L489.14062 155.26562L489.84375 155.82812Q490.03125 156.10938 489.65625 156.0625Q488.85938 157.0 487.73438 157.79688Q489.375 158.35938 491.20312 158.5L490.96875 159.57812ZM486.70312 150.01562L490.92188 150.01562L490.92188 150.90625L482.625 150.90625L482.625 155.03125Q482.625 157.65625 481.45312 159.4375L480.60938 158.73438Q481.6875 157.28125 481.6875 154.84375L481.6875 150.01562L485.625 150.01562L485.625 148.79688L486.65625 148.79688Q487.03125 148.84375 486.70312 149.07812L486.70312 150.01562ZM486.98438 157.28125Q487.54688 156.90625 488.29688 156.15625L485.85938 156.15625Q486.32812 156.71875 486.98438 157.28125ZM488.67188 154.75L487.73438 154.75L487.73438 154.46875L485.71875 154.46875L485.71875 154.79688L484.78125 154.79688L484.78125 152.92188L482.90625 152.92188L482.90625 152.17188L484.78125 152.17188L484.78125 151.28125L485.67188 151.28125Q486.04688 151.32812 485.71875 151.5625L485.71875 152.17188L487.73438 152.17188L487.73438 151.1875L488.625 151.1875Q489.0 151.23438 488.67188 151.46875L488.67188 152.17188L490.92188 152.17188L490.92188 152.92188L488.67188 152.92188L488.67188 154.75ZM487.73438 152.92188L485.71875 152.92188L485.71875 153.71875L487.73438 153.71875L487.73438 152.92188Z" fill-rule="nonzero"/><path stroke="#cccccc" stroke-width="1.0" stroke-linecap="butt" d="M318.0 201.0L384.0 291.0" fill-rule="nonzero"/><path fill="#000000" d="M391.39062 326.76562Q392.14062 327.70312 394.20312 328.45312L393.73438 329.48438Q390.07812 328.26562 389.09375 324.32812L388.8125 324.32812Q388.34375 324.98438 387.82812 325.5L387.82812 328.125L390.5 327.60938L390.64062 328.40625Q388.10938 329.01562 385.67188 329.48438Q385.53125 329.90625 385.39062 329.625L385.0625 328.5L386.89062 328.26562L386.89062 326.25Q385.67188 327.09375 384.17188 327.60938L383.70312 326.67188Q386.04688 326.01562 387.6875 324.32812L383.9375 324.32812L383.9375 323.4375L388.48438 323.4375L388.48438 322.59375L385.10938 322.59375L385.10938 321.70312L388.48438 321.70312L388.48438 320.85938L384.5 320.85938L384.5 319.96875L388.48438 319.96875L388.48438 318.84375L389.375 318.84375Q389.75 318.89062 389.42188 319.125L389.42188 319.96875L393.40625 319.96875L393.40625 320.85938L389.42188 320.85938L389.42188 321.70312L392.79688 321.70312L392.79688 322.59375L389.42188 322.59375L389.42188 323.4375L393.96875 323.4375L393.96875 324.32812L389.98438 324.32812Q390.26562 325.21875 390.92188 326.20312Q391.8125 325.45312 392.60938 324.5625L393.3125 325.26562Q393.35938 325.5 393.07812 325.40625Q392.28125 326.15625 391.39062 326.76562Z" fill-rule="nonzero"/><path fill="#000000" d="M403.71875 321.28125Q403.53125 321.79688 403.45312 322.92188Q403.39062 324.04688 403.15625 325.3125L404.09375 325.3125Q404.04688 325.78125 404.04688 326.57812L404.04688 328.07812Q404.04688 328.78125 404.29688 328.82812Q404.5625 328.875 404.89062 328.84375Q405.21875 328.82812 405.35938 328.51562Q405.5 328.21875 405.54688 327.42188Q406.01562 327.70312 406.57812 327.79688Q406.34375 328.78125 406.10938 329.125Q405.875 329.48438 405.125 329.57812L404.1875 329.57812Q403.15625 329.57812 403.15625 328.6875L403.15625 325.40625Q402.73438 326.90625 401.9375 327.92188Q401.14062 328.92188 399.54688 329.76562Q399.3125 329.39062 398.75 329.10938Q400.25 328.5 400.95312 327.78125Q401.65625 327.04688 402.07812 325.92188Q402.5 324.79688 402.5625 323.57812Q402.64062 322.35938 402.59375 321.14062Q403.20312 321.23438 403.71875 321.28125ZM398.46875 319.82812Q398.98438 319.82812 399.73438 319.78125L399.73438 320.67188Q398.98438 320.625 398.14062 320.625L398.14062 323.20312Q398.79688 323.20312 399.54688 323.15625L399.54688 324.04688Q398.79688 324.0 398.14062 324.0L398.14062 326.85938Q398.9375 326.67188 399.78125 326.39062Q399.73438 326.90625 399.73438 327.28125Q398.1875 327.65625 397.25 327.98438Q396.3125 328.3125 395.84375 328.54688Q395.70312 327.89062 395.46875 327.42188Q396.21875 327.32812 397.29688 327.09375L397.29688 324.0Q396.54688 324.0 395.84375 324.04688L395.84375 323.15625Q396.54688 323.20312 397.29688 323.20312L397.29688 320.625Q396.45312 320.625 395.79688 320.67188L395.79688 319.78125Q396.35938 319.82812 396.875 319.82812L398.46875 319.82812ZM405.78125 319.35938Q405.73438 320.10938 405.73438 320.85938L405.73438 324.0Q405.73438 324.89062 405.78125 325.54688L404.89062 325.54688L404.89062 320.10938L401.32812 320.10938L401.32812 325.59375L400.4375 325.59375Q400.48438 324.79688 400.48438 323.8125L400.48438 321.23438Q400.48438 320.20312 400.4375 319.35938L405.78125 319.35938Z" fill-rule="nonzero"/><path fill="#000000" d="M409.20312 324.0L407.84375 324.0L407.84375 323.10938L409.20312 323.10938L409.20312 320.53125L408.26562 320.53125L408.26562 319.64062L413.23438 319.64062L413.23438 320.53125L412.34375 320.53125L412.34375 323.10938L413.70312 323.10938L413.70312 324.0L412.34375 324.0L412.34375 329.29688L411.40625 329.29688L411.40625 324.0L410.14062 324.0L410.14062 324.79688Q410.14062 327.79688 408.92188 329.29688L408.03125 328.59375Q409.20312 327.42188 409.20312 324.79688L409.20312 324.0ZM411.40625 320.53125L410.14062 320.53125L410.14062 323.10938L411.40625 323.10938L411.40625 320.53125ZM413.46875 322.125Q415.76562 320.90625 416.51562 319.5L417.45312 320.20312Q417.59375 320.29688 417.21875 320.39062Q416.42188 321.75 414.07812 323.0625L413.46875 322.125ZM413.42188 325.03125Q416.09375 323.85938 416.89062 322.21875L417.82812 322.96875Q417.96875 323.0625 417.59375 323.15625Q416.28125 324.98438 414.07812 326.0625L413.42188 325.03125ZM418.39062 325.5Q418.625 325.59375 418.15625 325.73438Q416.60938 328.03125 413.70312 329.15625L413.14062 328.125Q416.14062 327.0 417.45312 324.75L418.39062 325.5ZM427.71875 326.76562Q428.32812 327.89062 428.79688 327.89062Q428.98438 327.89062 429.03125 327.60938L429.125 326.8125L430.15625 327.28125L429.96875 328.40625Q429.82812 329.20312 429.125 329.20312Q427.71875 329.20312 426.73438 327.28125Q425.79688 325.45312 425.75 322.125L419.98438 322.125L419.98438 321.09375L425.70312 321.09375L425.70312 318.9375L426.73438 318.9375Q427.20312 319.03125 426.78125 319.3125L426.78125 321.09375L430.0625 321.09375L430.0625 322.125L426.78125 322.125Q426.96875 325.40625 427.71875 326.76562ZM425.89062 327.60938Q423.26562 328.17188 420.59375 328.64062Q420.5 329.0625 420.26562 328.73438L420.03125 327.5625Q421.20312 327.46875 422.32812 327.28125L422.32812 324.60938L420.45312 324.60938L420.45312 323.71875L425.09375 323.71875L425.09375 324.60938L423.26562 324.60938L423.26562 327.14062Q424.34375 327.0 425.75 326.71875L425.89062 327.60938ZM428.04688 319.17188Q428.70312 319.5 429.3125 320.0625L428.46875 320.76562Q428.0 320.29688 427.25 319.875L428.04688 319.17188Z" fill-rule="nonzero"/><path stroke="#cccccc" stroke-width="1.0" stroke-linecap="butt" d="M318.0 201.0L252.0 291.0" fill-rule="nonzero"/><path fill="#000000" d="M209.73438 324.89062Q209.6875 325.5 209.6875 326.25L209.6875 327.84375Q209.6875 328.73438 209.73438 329.39062L208.79688 329.39062L208.79688 328.5L205.60938 328.5L205.60938 329.48438L204.67188 329.48438Q204.71875 328.26562 204.71875 327.89062L204.71875 326.15625Q204.71875 325.59375 204.67188 324.89062L209.73438 324.89062ZM202.5625 319.40625Q202.1875 319.875 201.76562 320.625Q201.34375 321.375 200.73438 322.5Q201.76562 322.45312 202.23438 322.45312Q202.65625 321.70312 202.9375 321.0Q203.40625 321.32812 203.96875 321.60938Q203.73438 321.79688 203.14062 322.64062Q202.5625 323.48438 201.29688 325.40625Q202.84375 325.17188 203.73438 325.03125Q203.59375 325.54688 203.59375 325.92188Q203.17188 325.96875 202.09375 326.10938Q201.01562 326.25 199.98438 326.53125Q199.79688 326.0625 199.65625 325.59375Q200.21875 325.45312 200.78125 324.73438Q201.34375 324.0 201.76562 323.20312Q201.4375 323.20312 200.79688 323.28125Q200.17188 323.34375 199.70312 323.48438Q199.5625 323.01562 199.42188 322.59375Q199.9375 322.17188 200.51562 321.14062Q201.10938 320.10938 201.4375 318.89062Q202.0 319.17188 202.5625 319.40625ZM206.64062 320.67188Q206.64062 319.875 206.59375 318.79688L207.57812 318.79688Q207.53125 319.64062 207.53125 320.67188L208.89062 320.67188Q209.78125 320.67188 210.53125 320.625L210.53125 321.46875Q209.78125 321.42188 208.9375 321.42188L207.53125 321.42188L207.53125 322.96875L208.60938 322.96875Q209.26562 322.96875 209.92188 322.92188L209.92188 323.76562Q209.35938 323.71875 208.5625 323.71875L205.84375 323.71875Q205.04688 323.71875 204.4375 323.76562L204.4375 322.92188Q205.04688 322.96875 205.75 322.96875L206.64062 322.96875L206.64062 321.42188L205.60938 321.42188Q204.76562 321.42188 204.01562 321.46875L204.01562 320.625Q204.625 320.67188 205.51562 320.67188L206.64062 320.67188ZM208.79688 327.75L208.79688 325.64062L205.60938 325.64062L205.60938 327.75L208.79688 327.75ZM203.82812 327.28125Q203.6875 327.70312 203.73438 328.17188Q202.84375 328.3125 201.71875 328.5Q200.59375 328.6875 199.79688 328.92188Q199.60938 328.3125 199.42188 327.84375Q200.40625 327.79688 201.20312 327.6875Q202.0 327.5625 203.82812 327.28125Z" fill-rule="nonzero"/><path fill="#000000" d="M219.53125 327.89062L219.4375 327.1875Q218.3125 327.51562 216.625 327.9375Q216.39062 328.3125 216.29688 327.84375L216.10938 327.0L216.71875 326.90625Q217.32812 324.9375 217.51562 322.5L218.64062 322.59375Q218.78125 322.73438 218.54688 322.875Q218.3125 324.32812 217.60938 326.71875L219.29688 326.4375Q219.15625 325.5 218.82812 324.60938L219.71875 324.42188Q220.32812 326.01562 220.51562 327.70312L219.53125 327.89062ZM215.3125 322.875Q216.76562 321.28125 217.23438 318.84375L218.26562 318.89062Q218.40625 318.98438 218.17188 319.125Q217.84375 320.25 217.5625 320.90625L221.92188 320.90625L221.82812 328.03125Q221.82812 329.4375 220.60938 329.4375L219.76562 329.4375L219.67188 328.54688L220.28125 328.54688Q220.89062 328.54688 220.89062 327.79688L220.98438 321.79688L217.1875 321.79688Q216.76562 322.73438 215.92188 323.76562L215.3125 322.875ZM214.23438 321.28125L215.5 321.28125L215.5 322.17188L214.23438 322.17188L214.23438 323.4375Q214.9375 323.85938 215.64062 324.60938L215.03125 325.54688Q214.65625 324.9375 214.23438 324.60938L214.23438 329.57812L213.29688 329.57812L213.29688 324.75Q212.96875 325.78125 211.98438 327.04688L211.46875 325.875Q212.875 324.28125 213.29688 322.17188L211.84375 322.17188L211.84375 321.28125L213.29688 321.28125L213.29688 318.79688L214.1875 318.79688Q214.5625 318.84375 214.23438 319.07812L214.23438 321.28125ZM225.29688 326.10938Q228.76562 325.125 230.07812 323.01562L231.10938 323.25Q231.29688 323.4375 230.96875 323.48438L230.54688 324.04688L232.98438 324.04688L233.07812 323.85938L233.82812 324.42188Q234.20312 324.65625 233.82812 324.75Q231.20312 328.96875 224.96875 329.57812L224.6875 328.54688Q227.78125 328.26562 229.23438 327.46875Q228.8125 326.8125 227.875 326.20312Q226.75 326.71875 225.76562 327.04688L225.29688 326.10938ZM224.45312 324.1875Q226.75 323.76562 227.96875 323.01562Q227.5 322.5 226.65625 321.89062Q226.23438 322.21875 224.96875 322.73438L224.5 321.84375Q227.21875 320.76562 228.0625 318.79688L229.0 319.07812Q229.14062 319.26562 228.85938 319.3125L228.57812 319.73438L231.53125 319.73438L231.625 319.5L232.375 320.0625Q232.75 320.29688 232.375 320.39062Q230.03125 323.95312 224.92188 325.125L224.45312 324.1875ZM228.90625 322.45312Q230.03125 321.84375 230.96875 320.625L228.01562 320.625Q227.6875 321.0 227.35938 321.28125Q228.20312 321.84375 228.90625 322.45312ZM228.76562 325.6875Q229.65625 326.25 230.26562 326.90625Q231.48438 326.15625 232.42188 324.9375L229.75 324.9375Q229.23438 325.40625 228.76562 325.6875ZM246.34375 326.625L246.15625 327.60938Q245.92188 328.875 244.84375 328.875L242.64062 328.875Q241.75 328.875 241.75 327.79688L241.75 323.57812L240.15625 323.57812L240.15625 324.65625Q240.15625 328.3125 236.3125 329.29688L235.84375 328.17188Q239.07812 327.375 239.07812 324.70312L239.07812 323.57812L235.98438 323.57812L235.98438 322.6875L246.0625 322.6875L246.0625 323.57812L242.82812 323.57812L242.82812 327.46875Q242.82812 327.84375 243.15625 327.84375L244.42188 327.84375Q244.98438 327.84375 245.07812 327.375L245.26562 326.29688L246.34375 326.625ZM244.89062 320.57812L237.20312 320.57812L237.20312 319.6875L244.89062 319.6875L244.89062 320.57812ZM247.75 324.1875Q249.76562 322.35938 250.28125 319.17188L251.3125 319.45312Q251.64062 319.54688 251.17188 319.82812Q251.07812 320.53125 250.51562 321.89062L250.79688 321.98438Q250.98438 322.125 250.65625 322.3125L250.65625 329.25L249.71875 329.25L249.71875 323.39062Q249.15625 324.28125 248.35938 325.03125L247.75 324.1875ZM258.15625 326.48438L258.01562 327.5625Q257.82812 328.92188 256.65625 328.92188L253.51562 328.92188Q252.67188 328.92188 252.67188 328.125L252.67188 319.3125L253.5625 319.3125Q254.03125 319.35938 253.60938 319.59375L253.60938 323.0625Q255.39062 322.35938 256.89062 321.23438L257.59375 322.07812Q257.92188 322.35938 257.35938 322.35938Q255.34375 323.39062 253.60938 324.09375L253.60938 327.51562Q253.60938 327.89062 253.9375 327.89062L256.42188 327.89062Q256.9375 327.89062 256.98438 327.42188L257.07812 326.29688L258.15625 326.48438Z" fill-rule="nonzero"/><path stroke="#cccccc" stroke-width="1.0" stroke-linecap="butt" d="M318.0 201.0L212.0 166.0" fill-rule="nonzero"/><path fill="#000000" d="M135.98438 156.90625Q135.84375 156.39062 135.60938 155.875Q136.5 155.875 136.75 155.64062Q137.01562 155.40625 136.96875 153.4375L134.8125 153.4375L134.8125 157.79688Q134.8125 158.45312 135.375 158.45312L137.29688 158.45312Q137.625 158.5 137.78125 158.125Q137.95312 157.75 138.0 157.1875Q138.375 157.42188 138.98438 157.60938Q138.65625 158.82812 138.34375 159.03125Q138.04688 159.25 137.53125 159.25L134.90625 159.25Q133.96875 159.25 133.96875 158.26562L133.96875 154.28125Q133.96875 153.57812 133.92188 152.73438Q133.59375 153.10938 133.17188 153.53125Q132.75 153.0625 132.375 152.82812Q132.89062 152.45312 133.35938 152.01562Q133.82812 151.5625 134.25 151.0Q134.67188 150.4375 135.04688 149.875Q135.42188 149.3125 135.70312 148.60938Q136.07812 148.89062 136.73438 149.21875Q136.45312 149.40625 136.26562 149.59375Q136.6875 149.92188 137.34375 150.34375Q138.0 150.76562 138.98438 151.75Q138.60938 152.03125 138.28125 152.5Q137.39062 151.42188 136.89062 151.04688Q136.40625 150.67188 135.89062 150.29688Q135.1875 151.28125 134.76562 151.79688L134.0625 152.59375L137.90625 152.59375Q137.85938 153.95312 137.85938 154.70312Q137.85938 155.40625 137.73438 155.90625Q137.625 156.39062 137.15625 156.60938Q136.6875 156.8125 135.98438 156.90625ZM142.73438 148.9375Q142.6875 149.73438 142.6875 150.57812L142.6875 158.3125Q142.6875 159.10938 142.28125 159.29688Q141.89062 159.48438 140.95312 159.625Q140.8125 159.01562 140.53125 158.54688Q141.375 158.54688 141.60938 158.5Q141.84375 158.45312 141.84375 157.98438L141.84375 150.57812Q141.84375 149.82812 141.79688 148.9375L142.73438 148.9375ZM140.29688 150.57812Q140.25 151.32812 140.25 152.21875L140.25 155.59375Q140.25 156.48438 140.29688 157.09375L139.3125 157.09375Q139.35938 156.34375 139.35938 155.59375L139.35938 152.07812Q139.35938 151.375 139.3125 150.57812L140.29688 150.57812Z" fill-rule="nonzero"/><path fill="#000000" d="M155.10938 150.85938L155.10938 151.75L151.73438 151.75L151.73438 153.48438L154.6875 153.48438L154.6875 154.375L151.73438 154.375L151.73438 155.92188L154.875 155.92188L154.875 156.8125L151.73438 156.8125L151.73438 159.4375L150.79688 159.4375L150.79688 151.75L150.32812 151.75Q149.57812 153.34375 148.73438 154.1875L147.84375 153.53125Q149.71875 151.5625 150.1875 148.89062L151.17188 149.17188Q151.45312 149.3125 151.125 149.40625Q151.03125 149.875 150.65625 150.85938L155.10938 150.85938ZM144.60938 154.14062Q146.67188 151.75 147.32812 148.98438L148.35938 149.3125Q148.64062 149.5 148.3125 149.54688Q147.98438 150.625 147.375 151.89062L147.65625 151.98438Q147.84375 152.17188 147.51562 152.21875L147.51562 159.4375L146.57812 159.4375L146.57812 153.34375Q146.0625 154.1875 145.35938 154.9375L144.60938 154.14062ZM165.5625 153.95312L165.5625 159.39062L164.625 159.39062L164.625 158.92188L160.40625 158.92188L160.40625 159.53125L159.46875 159.53125L159.46875 155.26562Q158.25 155.92188 156.84375 156.29688L156.51562 155.45312Q157.82812 155.125 159.46875 154.28125L159.46875 153.95312L160.125 153.95312Q161.10938 153.39062 161.8125 152.82812L156.89062 152.82812L156.89062 151.9375L161.01562 151.9375L161.01562 150.8125L158.10938 150.8125L158.10938 149.92188L161.01562 149.92188L161.01562 148.79688L161.90625 148.79688Q162.28125 148.84375 161.95312 149.07812L161.95312 149.92188L164.20312 149.92188L164.20312 150.71875Q164.76562 150.10938 165.32812 149.35938L165.98438 149.78125Q166.3125 150.01562 165.89062 150.0625Q165.0 151.14062 164.10938 151.9375L167.34375 151.9375L167.34375 152.82812L163.125 152.82812Q162.1875 153.625 161.625 153.95312L165.5625 153.95312ZM162.84375 151.9375Q163.40625 151.51562 164.10938 150.8125L161.95312 150.8125L161.95312 151.9375L162.84375 151.9375ZM160.40625 155.96875L164.625 155.96875L164.625 154.70312L160.40625 154.70312L160.40625 155.96875ZM160.40625 158.17188L164.625 158.17188L164.625 156.71875L160.40625 156.71875L160.40625 158.17188ZM175.35938 151.84375Q174.89062 153.15625 173.85938 154.32812L173.15625 153.48438Q174.75 151.89062 175.17188 148.9375L176.15625 149.26562Q176.57812 149.45312 176.10938 149.54688Q175.96875 150.20312 175.73438 150.95312L179.10938 150.95312L178.875 157.32812Q178.82812 159.20312 177.375 159.20312L176.0625 159.20312L175.92188 158.3125L177.14062 158.3125Q177.79688 158.3125 177.84375 157.46875L178.07812 151.84375L175.35938 151.84375ZM175.92188 156.20312Q175.26562 155.26562 174.46875 154.51562L175.26562 153.67188Q176.20312 154.51562 176.76562 155.3125L175.92188 156.20312ZM170.39062 150.95312Q170.67188 150.0625 170.90625 148.89062L172.03125 149.3125Q172.21875 149.5 171.89062 149.54688Q171.75 150.15625 171.375 150.95312L173.10938 150.95312L173.10938 158.6875L172.17188 158.6875L172.17188 158.125L170.10938 158.125L170.10938 159.0625L169.17188 159.0625L169.17188 150.95312L170.39062 150.95312ZM172.17188 151.84375L170.10938 151.84375L170.10938 153.90625L172.17188 153.90625L172.17188 151.84375ZM172.17188 154.79688L170.10938 154.79688L170.10938 157.23438L172.17188 157.23438L172.17188 154.79688ZM189.04688 152.82812L189.04688 151.28125L183.14062 151.28125L183.14062 152.82812L189.04688 152.82812ZM189.04688 153.71875L183.14062 153.71875L183.14062 155.3125L189.04688 155.3125L189.04688 153.71875ZM189.04688 157.9375L189.04688 156.20312L183.14062 156.20312L183.14062 157.9375L189.04688 157.9375ZM185.10938 150.39062L185.53125 148.75L186.65625 148.98438Q186.84375 149.17188 186.51562 149.21875L186.0 150.39062L189.98438 150.39062L189.98438 159.25L189.04688 159.25L189.04688 158.82812L183.14062 158.82812L183.14062 159.39062L182.20312 159.39062L182.20312 150.39062L185.10938 150.39062ZM194.57812 157.75L197.57812 157.75L197.57812 155.3125L194.57812 155.3125L194.57812 157.75ZM194.57812 154.42188L197.57812 154.42188L197.57812 151.98438L194.57812 151.98438L194.57812 154.42188ZM201.51562 154.42188L201.51562 151.98438L198.51562 151.98438L198.51562 154.42188L201.51562 154.42188ZM198.51562 157.75L201.51562 157.75L201.51562 155.3125L198.51562 155.3125L198.51562 157.75ZM193.64062 159.39062L193.64062 151.09375L197.57812 151.09375L197.57812 148.89062L198.46875 148.89062Q198.84375 148.9375 198.51562 149.17188L198.51562 151.09375L202.45312 151.09375L202.45312 159.20312L201.51562 159.20312L201.51562 158.64062L194.57812 158.64062L194.57812 159.39062L193.64062 159.39062ZM214.96875 159.57812Q212.71875 159.29688 210.98438 158.40625Q209.34375 159.39062 207.04688 159.625L206.67188 158.64062Q208.78125 158.45312 210.1875 157.75Q209.4375 157.0 208.82812 156.15625L207.51562 156.15625L207.51562 155.40625L213.0 155.40625L213.14062 155.26562L213.84375 155.82812Q214.03125 156.10938 213.65625 156.0625Q212.85938 157.0 211.73438 157.79688Q213.375 158.35938 215.20312 158.5L214.96875 159.57812ZM210.70312 150.01562L214.92188 150.01562L214.92188 150.90625L206.625 150.90625L206.625 155.03125Q206.625 157.65625 205.45312 159.4375L204.60938 158.73438Q205.6875 157.28125 205.6875 154.84375L205.6875 150.01562L209.625 150.01562L209.625 148.79688L210.65625 148.79688Q211.03125 148.84375 210.70312 149.07812L210.70312 150.01562ZM210.98438 157.28125Q211.54688 156.90625 212.29688 156.15625L209.85938 156.15625Q210.32812 156.71875 210.98438 157.28125ZM212.67188 154.75L211.73438 154.75L211.73438 154.46875L209.71875 154.46875L209.71875 154.79688L208.78125 154.79688L208.78125 152.92188L206.90625 152.92188L206.90625 152.17188L208.78125 152.17188L208.78125 151.28125L209.67188 151.28125Q210.04688 151.32812 209.71875 151.5625L209.71875 152.17188L211.73438 152.17188L211.73438 151.1875L212.625 151.1875Q213.0 151.23438 212.67188 151.46875L212.67188 152.17188L214.92188 152.17188L214.92188 152.92188L212.67188 152.92188L212.67188 154.75ZM211.73438 152.92188L209.71875 152.92188L209.71875 153.71875L211.73438 153.71875L211.73438 152.92188Z" fill-rule="nonzero"/><path stroke="#cccccc" stroke-width="1.0" stroke-linecap="butt" d="M318.0 201.0L318.0 89.0" fill-rule="nonzero"/><path stroke="#4285f4" stroke-width="4.0" stroke-linecap="butt" d="M318.0 89.0L424.0 166.0L384.0 291.0L252.0 291.0L212.0 166.0Z" fill-rule="nonzero"/><path stroke="#ea4335" stroke-width="4.0" stroke-linecap="butt" d="M318.0 179.0L382.0 180.0L344.0 237.0L292.0 237.0L297.0 194.0Z" fill-rule="nonzero"/><path stroke="#4285f4" stroke-width="4.0" stroke-linecap="butt" d="M233.5 365.35L245.5 365.35" fill-rule="nonzero"/><path fill="#1a1a1a" d="M258.15625 368.49063Q257.98438 367.88126 257.71875 367.2875Q258.75 367.2875 259.04688 367.02188Q259.35938 366.74063 259.29688 364.44376L256.78125 364.44376L256.78125 369.52188Q256.78125 370.2875 257.4375 370.2875L259.6875 370.2875Q260.0625 370.35 260.25 369.9125Q260.45312 369.475 260.5 368.81876Q260.9375 369.08438 261.65625 369.30313Q261.26562 370.74063 260.90625 370.975Q260.5625 371.225 259.95312 371.225L256.89062 371.225Q255.79688 371.225 255.79688 370.06876L255.79688 365.42813Q255.79688 364.6 255.75 363.61563Q255.35938 364.05313 254.875 364.55313Q254.375 364.00626 253.9375 363.725Q254.54688 363.2875 255.09375 362.77188Q255.64062 362.25626 256.125 361.6Q256.625 360.94376 257.0625 360.2875Q257.5 359.63126 257.82812 358.80313Q258.26562 359.13126 259.03125 359.52188Q258.70312 359.74063 258.48438 359.95938Q258.96875 360.33438 259.73438 360.83438Q260.5 361.31876 261.65625 362.475Q261.21875 362.80313 260.82812 363.35Q259.79688 362.08438 259.21875 361.64688Q258.64062 361.20938 258.04688 360.77188Q257.21875 361.92813 256.73438 362.52188L255.90625 363.45938L260.39062 363.45938Q260.34375 365.0375 260.34375 365.9125Q260.34375 366.74063 260.20312 367.31876Q260.0625 367.88126 259.51562 368.13126Q258.96875 368.38126 258.15625 368.49063ZM266.03125 359.19376Q265.96875 360.11563 265.96875 361.1L265.96875 370.13126Q265.96875 371.06876 265.5 371.2875Q265.04688 371.50626 263.95312 371.6625Q263.78125 370.95938 263.45312 370.4125Q264.4375 370.4125 264.70312 370.35Q264.98438 370.2875 264.98438 369.74063L264.98438 361.1Q264.98438 360.225 264.9375 359.19376L266.03125 359.19376ZM263.1875 361.1Q263.125 361.975 263.125 363.02188L263.125 366.95938Q263.125 367.99063 263.1875 368.70938L262.03125 368.70938Q262.09375 367.83438 262.09375 366.95938L262.09375 362.85Q262.09375 362.0375 262.03125 361.1L263.1875 361.1Z" fill-rule="nonzero"/><path fill="#1a1a1a" d="M274.5 369.69376Q274.28125 369.30313 273.57812 368.49063L274.5 367.94376Q275.32812 368.64688 275.54688 369.08438L274.5 369.69376ZM270.625 368.81876Q270.95312 369.08438 270.45312 369.14688Q270.07812 370.13126 269.25 371.11563L268.15625 370.4125Q268.92188 369.52188 269.53125 368.27188L270.625 368.81876ZM274.82812 360.00626L279.20312 360.00626L279.20312 360.88126L277.29688 360.88126L276.6875 362.14688L280.625 362.14688L280.625 363.02188L268.04688 363.02188L268.04688 362.14688L271.71875 362.14688L271.28125 360.88126L269.42188 360.88126L269.42188 360.00626L273.73438 360.00626L273.73438 359.02188L274.78125 359.02188Q275.21875 359.08438 274.82812 359.35L274.82812 360.00626ZM272.8125 362.14688L275.54688 362.14688L276.14062 360.88126L272.375 360.88126L272.8125 362.14688ZM279.59375 370.85Q278.9375 369.80313 277.89062 368.75626L278.875 368.1Q279.96875 369.0375 280.6875 370.17813L279.59375 370.85ZM272.53125 368.1625Q272.96875 368.20938 272.59375 368.49063L272.59375 369.80313Q272.59375 370.24063 272.96875 370.24063L276.46875 370.24063Q276.75 370.24063 276.75 370.02188L276.79688 369.19376L277.89062 369.4125L277.84375 370.24063Q277.78125 371.2875 276.79688 371.2875L272.48438 371.2875Q271.5 371.2875 271.5 370.35L271.5 368.1625L272.53125 368.1625ZM277.29688 366.19376L271.17188 366.19376L271.17188 366.89688L277.29688 366.89688L277.29688 366.19376ZM278.21875 367.77188L270.23438 367.77188L270.23438 363.725L278.21875 363.725L278.21875 367.77188ZM277.29688 365.31876L277.29688 364.6L271.17188 364.6L271.17188 365.31876L277.29688 365.31876ZM287.07812 369.85Q288.82812 370.35 289.48438 370.17813Q290.20312 370.02188 290.53125 368.1625L282.21875 368.1625L282.21875 367.11563L290.6875 367.11563L290.79688 365.80313L285.9375 365.80313L285.71875 366.35L284.625 366.08438Q285.39062 363.50626 285.71875 361.27188L286.75 361.38126Q287.1875 361.42813 286.8125 361.70938L286.64062 362.36563L292.21875 362.36563L292.21875 363.39688L286.48438 363.39688Q286.3125 364.05313 286.15625 364.77188L292.0625 364.77188L291.89062 367.11563L294.625 367.11563L294.625 368.1625L291.73438 368.1625Q291.1875 371.225 289.875 371.44376Q288.60938 371.6625 287.25 371.17813L287.07812 369.85ZM292.9375 362.36563L292.9375 360.725L283.90625 360.725L283.90625 362.36563L282.65625 362.36563L282.65625 359.67813L294.1875 359.67813L294.1875 362.36563L292.9375 362.36563ZM308.46875 361.42813L308.46875 362.475L304.53125 362.475L304.53125 364.49063L307.96875 364.49063L307.96875 365.5375L304.53125 365.5375L304.53125 367.33438L308.1875 367.33438L308.1875 368.38126L304.53125 368.38126L304.53125 371.44376L303.4375 371.44376L303.4375 362.475L302.89062 362.475Q302.01562 364.33438 301.03125 365.31876L299.98438 364.55313Q302.17188 362.25626 302.71875 359.13126L303.875 359.45938Q304.20312 359.63126 303.8125 359.74063Q303.70312 360.2875 303.26562 361.42813L308.46875 361.42813ZM296.21875 365.25626Q298.625 362.475 299.39062 359.24063L300.59375 359.63126Q300.92188 359.85 300.53125 359.89688Q300.15625 361.1625 299.4375 362.63126L299.76562 362.74063Q299.98438 362.95938 299.60938 363.02188L299.60938 371.44376L298.51562 371.44376L298.51562 364.33438Q297.90625 365.31876 297.09375 366.19376L296.21875 365.25626Z" fill-rule="nonzero"/><path stroke="#ea4335" stroke-width="4.0" stroke-linecap="butt" d="M325.5 365.35L337.5 365.35" fill-rule="nonzero"/><path fill="#1a1a1a" d="M347.96875 370.4125Q348.1875 370.4125 348.1875 370.17813L348.1875 366.89688L346.98438 367.39688Q346.92188 367.83438 346.70312 367.61563L346.21875 366.24063L348.1875 365.69376L348.1875 362.52188L346.48438 362.52188L346.48438 361.49063L348.1875 361.49063L348.1875 359.02188L349.21875 359.13126Q349.65625 359.19376 349.28125 359.45938L349.28125 361.49063L350.8125 361.49063L350.8125 362.52188L349.28125 362.52188L349.28125 365.36563L350.85938 364.77188L351.07812 365.75626L349.28125 366.52188L349.28125 370.74063Q349.28125 371.61563 348.40625 371.61563L347.25 371.61563L347.03125 370.4125L347.96875 370.4125ZM355.07812 361.31876L358.46875 361.31876L358.46875 362.36563L355.07812 362.36563L355.07812 364.44376L356.60938 364.44376L356.76562 364.11563L357.75 364.70938L357.59375 364.92813Q356.875 367.39688 355.73438 368.75626Q357.04688 369.69376 359.01562 370.24063L358.51562 371.55313Q356.60938 371.00626 354.90625 369.69376Q353.4375 370.95938 350.8125 371.6625L350.3125 370.4125Q352.82812 369.74063 353.98438 368.81876Q352.9375 367.50626 352.45312 365.475L351.46875 365.475L351.46875 364.44376L353.98438 364.44376L353.98438 362.36563L351.25 362.36563L351.25 361.31876L353.98438 361.31876L353.98438 358.975L355.01562 359.08438Q355.45312 359.13126 355.07812 359.4125L355.07812 361.31876ZM353.54688 365.475Q354.03125 367.06876 354.85938 368.05313Q355.73438 366.89688 356.17188 365.475L353.54688 365.475Z" fill-rule="nonzero"/><path fill="#1a1a1a" d="M365.90625 362.36563L365.90625 361.31876Q365.90625 360.00626 365.84375 359.13126L367.10938 359.13126Q367.04688 360.11563 367.04688 361.31876L367.04688 362.36563L370.5 362.36563Q371.42188 362.36563 372.51562 362.30313L372.51562 363.39688Q371.48438 363.35 370.54688 363.35L368.03125 363.35Q368.35938 364.38126 368.875 365.25626Q369.40625 366.13126 370.0625 366.85Q370.71875 367.55313 371.48438 368.08438Q372.25 368.6 372.90625 368.81876Q372.25 369.36563 371.85938 369.85Q370.875 369.25626 370.15625 368.63126Q369.45312 367.99063 368.79688 367.11563Q368.14062 366.24063 367.73438 365.35Q367.32812 364.44376 367.04688 363.56876L367.04688 369.58438Q367.04688 370.4125 367.10938 371.50626L365.84375 371.50626Q365.90625 370.4125 365.90625 369.58438L365.90625 363.83438Q365.57812 364.6625 365.14062 365.5375Q364.70312 366.4125 364.17188 367.13126Q363.65625 367.83438 362.92188 368.56876Q362.1875 369.30313 361.03125 370.17813Q360.70312 369.69376 360.0 369.25626Q360.76562 368.86563 361.54688 368.20938Q362.34375 367.55313 362.96875 366.77188Q363.60938 365.975 364.09375 365.06876Q364.59375 364.1625 364.85938 363.35L362.5625 363.35Q361.6875 363.35 360.48438 363.39688L360.48438 362.30313Q361.6875 362.36563 362.51562 362.36563L365.90625 362.36563ZM369.73438 359.24063Q370.17188 359.67813 370.54688 360.11563Q370.9375 360.55313 371.42188 361.27188Q370.71875 361.75626 370.4375 362.0375Q369.89062 361.1625 369.53125 360.67813Q369.1875 360.17813 368.85938 359.85L369.73438 359.24063Z" fill-rule="nonzero"/><path fill="#1a1a1a" d="M379.07812 369.85Q380.82812 370.35 381.48438 370.17813Q382.20312 370.02188 382.53125 368.1625L374.21875 368.1625L374.21875 367.11563L382.6875 367.11563L382.79688 365.80313L377.9375 365.80313L377.71875 366.35L376.625 366.08438Q377.39062 363.50626 377.71875 361.27188L378.75 361.38126Q379.1875 361.42813 378.8125 361.70938L378.64062 362.36563L384.21875 362.36563L384.21875 363.39688L378.48438 363.39688Q378.3125 364.05313 378.15625 364.77188L384.0625 364.77188L383.89062 367.11563L386.625 367.11563L386.625 368.1625L383.73438 368.1625Q383.1875 371.225 381.875 371.44376Q380.60938 371.6625 379.25 371.17813L379.07812 369.85ZM384.9375 362.36563L384.9375 360.725L375.90625 360.725L375.90625 362.36563L374.65625 362.36563L374.65625 359.67813L386.1875 359.67813L386.1875 362.36563L384.9375 362.36563ZM400.46875 361.42813L400.46875 362.475L396.53125 362.475L396.53125 364.49063L399.96875 364.49063L399.96875 365.5375L396.53125 365.5375L396.53125 367.33438L400.1875 367.33438L400.1875 368.38126L396.53125 368.38126L396.53125 371.44376L395.4375 371.44376L395.4375 362.475L394.89062 362.475Q394.01562 364.33438 393.03125 365.31876L391.98438 364.55313Q394.17188 362.25626 394.71875 359.13126L395.875 359.45938Q396.20312 359.63126 395.8125 359.74063Q395.70312 360.2875 395.26562 361.42813L400.46875 361.42813ZM388.21875 365.25626Q390.625 362.475 391.39062 359.24063L392.59375 359.63126Q392.92188 359.85 392.53125 359.89688Q392.15625 361.1625 391.4375 362.63126L391.76562 362.74063Q391.98438 362.95938 391.60938 363.02188L391.60938 371.44376L390.51562 371.44376L390.51562 364.33438Q389.90625 365.31876 389.09375 366.19376L388.21875 365.25626Z" fill-rule="nonzero"/><path fill="#757575" d="M26.290625 35.99375Q26.05625 35.134377 25.665625 34.275Q27.15 34.275 27.571875 33.884377Q28.009375 33.49375 27.93125 30.212502L24.3375 30.212502L24.3375 37.478127Q24.3375 38.571877 25.275 38.571877L28.478125 38.571877Q29.025 38.65 29.290625 38.025Q29.571875 37.4 29.65 36.4625Q30.275 36.853127 31.290625 37.165627Q30.74375 39.196877 30.228125 39.540627Q29.728125 39.9 28.86875 39.9L24.49375 39.9Q22.93125 39.9 22.93125 38.259377L22.93125 31.618752Q22.93125 30.446877 22.853125 29.040627Q22.30625 29.665627 21.603125 30.368752Q20.9 29.587502 20.275 29.196877Q21.134375 28.571877 21.915625 27.837502Q22.696875 27.087502 23.4 26.150002Q24.103125 25.212502 24.728125 24.275002Q25.353125 23.337502 25.821875 22.165627Q26.446875 22.634377 27.540625 23.181252Q27.071875 23.493752 26.759375 23.806252Q27.4625 24.353127 28.55625 25.056252Q29.65 25.759377 31.290625 27.400002Q30.665625 27.868752 30.11875 28.650002Q28.634375 26.853127 27.80625 26.228127Q26.99375 25.603127 26.134375 24.978127Q24.9625 26.618752 24.259375 27.478127L23.0875 28.806252L29.49375 28.806252Q29.415625 31.071877 29.415625 32.321877Q29.415625 33.49375 29.2125 34.321877Q29.025 35.134377 28.24375 35.49375Q27.4625 35.8375 26.290625 35.99375ZM37.540627 22.712502Q37.4625 24.040627 37.4625 25.446877L37.4625 38.3375Q37.4625 39.665627 36.790627 39.978127Q36.134377 40.290627 34.571877 40.525Q34.3375 39.509377 33.86875 38.728127Q35.275 38.728127 35.665627 38.65Q36.05625 38.571877 36.05625 37.790627L36.05625 25.446877Q36.05625 24.196877 35.978127 22.712502L37.540627 22.712502ZM33.478127 25.446877Q33.4 26.696877 33.4 28.181252L33.4 33.80625Q33.4 35.290627 33.478127 36.30625L31.8375 36.30625Q31.915625 35.05625 31.915625 33.80625L31.915625 27.946877Q31.915625 26.775002 31.8375 25.446877L33.478127 25.446877Z" fill-rule="nonzero"/><path fill="#757575" d="M49.65 37.7125Q49.3375 37.165627 48.321877 35.99375L49.65 35.2125Q50.821877 36.228127 51.134377 36.853127L49.65 37.7125ZM44.103127 36.4625Q44.571877 36.853127 43.86875 36.93125Q43.321877 38.3375 42.15 39.74375L40.5875 38.728127Q41.68125 37.478127 42.540627 35.68125L44.103127 36.4625ZM50.11875 23.884377L56.36875 23.884377L56.36875 25.134377L53.634377 25.134377L52.775 26.931252L58.4 26.931252L58.4 28.181252L40.43125 28.181252L40.43125 26.931252L45.665627 26.931252L45.040627 25.134377L42.384377 25.134377L42.384377 23.884377L48.55625 23.884377L48.55625 22.478127L50.040627 22.478127Q50.665627 22.556252 50.11875 22.946877L50.11875 23.884377ZM47.228127 26.931252L51.134377 26.931252L51.99375 25.134377L46.603127 25.134377L47.228127 26.931252ZM56.915627 39.353127Q55.978127 37.86875 54.49375 36.384377L55.9 35.446877Q57.4625 36.775 58.478127 38.415627L56.915627 39.353127ZM46.8375 35.525Q47.4625 35.603127 46.915627 35.99375L46.915627 37.86875Q46.915627 38.49375 47.4625 38.49375L52.4625 38.49375Q52.853127 38.49375 52.853127 38.18125L52.93125 37.009377L54.49375 37.321877L54.415627 38.49375Q54.3375 39.978127 52.93125 39.978127L46.759377 39.978127Q45.353127 39.978127 45.353127 38.65L45.353127 35.525L46.8375 35.525ZM53.634377 32.7125L44.884377 32.7125L44.884377 33.728127L53.634377 33.728127L53.634377 32.7125ZM54.9625 34.978127L43.55625 34.978127L43.55625 29.196877L54.9625 29.196877L54.9625 34.978127ZM53.634377 31.462502L53.634377 30.446877L44.884377 30.446877L44.884377 31.462502L53.634377 31.462502ZM67.61875 37.946877Q70.11875 38.65 71.05625 38.415627Q72.07188 38.18125 72.54063 35.525L60.665627 35.525L60.665627 34.040627L72.775 34.040627L72.93125 32.165627L65.97813 32.165627L65.66563 32.946877L64.10313 32.55625Q65.19688 28.884377 65.66563 25.681252L67.15 25.837502Q67.775 25.915627 67.22813 26.306252L66.99375 27.243752L74.9625 27.243752L74.9625 28.728127L66.75938 28.728127Q66.525 29.665627 66.29063 30.681252L74.72813 30.681252L74.49375 34.040627L78.4 34.040627L78.4 35.525L74.25938 35.525Q73.47813 39.9 71.60313 40.2125Q69.80625 40.525 67.85313 39.821877L67.61875 37.946877ZM75.97813 27.243752L75.97813 24.900002L63.0875 24.900002L63.0875 27.243752L61.290627 27.243752L61.290627 23.415627L77.775 23.415627L77.775 27.243752L75.97813 27.243752ZM98.16563 25.915627L98.16563 27.400002L92.54063 27.400002L92.54063 30.290627L97.4625 30.290627L97.4625 31.775002L92.54063 31.775002L92.54063 34.353127L97.775 34.353127L97.775 35.8375L92.54063 35.8375L92.54063 40.2125L90.97813 40.2125L90.97813 27.400002L90.19688 27.400002Q88.94688 30.056252 87.54063 31.462502L86.05625 30.368752Q89.18125 27.087502 89.9625 22.634377L91.60313 23.103127Q92.07188 23.337502 91.525 23.493752Q91.36875 24.275002 90.74375 25.915627L98.16563 25.915627ZM80.66563 31.384377Q84.10313 27.400002 85.19688 22.790627L86.91563 23.337502Q87.38438 23.650002 86.8375 23.728127Q86.29063 25.525002 85.275 27.634377L85.74375 27.790627Q86.05625 28.103127 85.50938 28.181252L85.50938 40.2125L83.94688 40.2125L83.94688 30.056252Q83.0875 31.462502 81.91563 32.7125L80.66563 31.384377Z" fill-rule="nonzero"/><path fill="#757575" d="M109.85313 38.65L105.9 28.275002L107.75938 28.275002L109.99375 34.49375Q110.35313 35.49375 110.65 36.571877Q110.88438 35.759377 111.30625 34.603127L113.60313 28.275002L115.41563 28.275002L111.49375 38.65L109.85313 38.65ZM115.25938 35.55625L117.00938 35.275Q117.15 36.321877 117.82188 36.884377Q118.49375 37.43125 119.69688 37.43125Q120.9 37.43125 121.47813 36.946877Q122.07188 36.446877 122.07188 35.790627Q122.07188 35.196877 121.55625 34.853127Q121.19688 34.61875 119.75938 34.259377Q117.82188 33.759377 117.07188 33.415627Q116.3375 33.05625 115.94688 32.43125Q115.55625 31.790627 115.55625 31.025002Q115.55625 30.337502 115.86875 29.743752Q116.19688 29.150002 116.74375 28.759377Q117.15 28.462502 117.85313 28.259377Q118.57188 28.040627 119.38438 28.040627Q120.60313 28.040627 121.525 28.400002Q122.44688 28.743752 122.88438 29.353127Q123.32188 29.946877 123.49375 30.946877L121.775 31.181252Q121.65 30.384377 121.0875 29.946877Q120.525 29.493752 119.50938 29.493752Q118.29063 29.493752 117.775 29.900002Q117.25938 30.290627 117.25938 30.821877Q117.25938 31.165627 117.47813 31.446877Q117.68125 31.728127 118.15 31.915627Q118.41563 32.009377 119.69688 32.353127Q121.57188 32.853127 122.30625 33.18125Q123.04063 33.49375 123.4625 34.103127Q123.88438 34.696877 123.88438 35.603127Q123.88438 36.478127 123.36875 37.259377Q122.85313 38.040627 121.88438 38.4625Q120.91563 38.884377 119.69688 38.884377Q117.68125 38.884377 116.61875 38.040627Q115.55625 37.196877 115.25938 35.55625Z" fill-rule="nonzero"/><path fill="#757575" d="M134.16562 38.728127Q134.47812 38.728127 134.47812 38.415627L134.47812 33.728127L132.75937 34.43125Q132.68124 35.05625 132.36874 34.74375L131.66562 32.790627L134.47812 32.009377L134.47812 27.478127L132.05624 27.478127L132.05624 25.993752L134.47812 25.993752L134.47812 22.478127L135.9625 22.634377Q136.5875 22.712502 136.04062 23.103127L136.04062 25.993752L138.22812 25.993752L138.22812 27.478127L136.04062 27.478127L136.04062 31.540627L138.30624 30.681252L138.61874 32.0875L136.04062 33.18125L136.04062 39.196877Q136.04062 40.446877 134.79062 40.446877L133.15 40.446877L132.8375 38.728127L134.16562 38.728127ZM144.32187 25.759377L149.16562 25.759377L149.16562 27.243752L144.32187 27.243752L144.32187 30.212502L146.50937 30.212502L146.74374 29.743752L148.15 30.603127L147.91562 30.915627Q146.9 34.43125 145.25937 36.384377Q147.13437 37.7125 149.94687 38.49375L149.24374 40.36875Q146.50937 39.5875 144.0875 37.7125Q141.97812 39.509377 138.22812 40.525L137.525 38.728127Q141.11874 37.790627 142.75937 36.4625Q141.275 34.5875 140.57187 31.696877L139.16562 31.696877L139.16562 30.212502L142.75937 30.212502L142.75937 27.243752L138.85312 27.243752L138.85312 25.759377L142.75937 25.759377L142.75937 22.400002L144.24374 22.556252Q144.86874 22.634377 144.32187 23.025002L144.32187 25.759377ZM142.13437 31.696877Q142.8375 33.9625 144.00937 35.36875Q145.25937 33.728127 145.88437 31.696877L142.13437 31.696877Z" fill-rule="nonzero"/><path fill="#757575" d="M159.79062 27.243752L159.79062 25.759377Q159.79062 23.884377 159.7125 22.634377L161.50937 22.634377Q161.43124 24.040627 161.43124 25.759377L161.43124 27.243752L166.35312 27.243752Q167.68124 27.243752 169.24374 27.165627L169.24374 28.728127Q167.75937 28.650002 166.43124 28.650002L162.8375 28.650002Q163.30624 30.134377 164.04062 31.384377Q164.79062 32.634377 165.72812 33.65Q166.66562 34.665627 167.75937 35.415627Q168.85312 36.15 169.79062 36.4625Q168.85312 37.24375 168.30624 37.946877Q166.9 37.0875 165.88437 36.196877Q164.86874 35.290627 163.93124 34.040627Q162.99374 32.790627 162.4 31.509377Q161.82187 30.212502 161.43124 28.962502L161.43124 37.55625Q161.43124 38.728127 161.50937 40.290627L159.7125 40.290627Q159.79062 38.728127 159.79062 37.55625L159.79062 29.353127Q159.32187 30.525002 158.69687 31.775002Q158.07187 33.025 157.32187 34.040627Q156.5875 35.05625 155.525 36.11875Q154.47812 37.165627 152.8375 38.415627Q152.36874 37.7125 151.35312 37.0875Q152.44687 36.540627 153.57187 35.603127Q154.7125 34.665627 155.60312 33.540627Q156.50937 32.4 157.2125 31.118752Q157.91562 29.821877 158.30624 28.650002L155.025 28.650002Q153.775 28.650002 152.05624 28.728127L152.05624 27.165627Q153.775 27.243752 154.94687 27.243752L159.79062 27.243752ZM165.25937 22.790627Q165.88437 23.415627 166.43124 24.040627Q166.97812 24.665627 167.68124 25.681252Q166.66562 26.384377 166.275 26.775002Q165.49374 25.525002 164.97812 24.821877Q164.47812 24.118752 164.00937 23.650002L165.25937 22.790627Z" fill-rule="nonzero"/><path fill="#757575" d="M178.61874 37.946877Q181.11874 38.65 182.05624 38.415627Q183.07187 38.18125 183.54062 35.525L171.66562 35.525L171.66562 34.040627L183.775 34.040627L183.93124 32.165627L176.97812 32.165627L176.66562 32.946877L175.10312 32.55625Q176.19687 28.884377 176.66562 25.681252L178.15 25.837502Q178.775 25.915627 178.22812 26.306252L177.99374 27.243752L185.9625 27.243752L185.9625 28.728127L177.75937 28.728127Q177.525 29.665627 177.29062 30.681252L185.72812 30.681252L185.49374 34.040627L189.4 34.040627L189.4 35.525L185.25937 35.525Q184.47812 39.9 182.60312 40.2125Q180.80624 40.525 178.85312 39.821877L178.61874 37.946877ZM186.97812 27.243752L186.97812 24.900002L174.0875 24.900002L174.0875 27.243752L172.29062 27.243752L172.29062 23.415627L188.775 23.415627L188.775 27.243752L186.97812 27.243752ZM209.16562 25.915627L209.16562 27.400002L203.54062 27.400002L203.54062 30.290627L208.4625 30.290627L208.4625 31.775002L203.54062 31.775002L203.54062 34.353127L208.775 34.353127L208.775 35.8375L203.54062 35.8375L203.54062 40.2125L201.97812 40.2125L201.97812 27.400002L201.19687 27.400002Q199.94687 30.056252 198.54062 31.462502L197.05624 30.368752Q200.18124 27.087502 200.9625 22.634377L202.60312 23.103127Q203.07187 23.337502 202.525 23.493752Q202.36874 24.275002 201.74374 25.915627L209.16562 25.915627ZM191.66562 31.384377Q195.10312 27.400002 196.19687 22.790627L197.91562 23.337502Q198.38437 23.650002 197.8375 23.728127Q197.29062 25.525002 196.275 27.634377L196.74374 27.790627Q197.05624 28.103127 196.50937 28.181252L196.50937 40.2125L194.94687 40.2125L194.94687 30.056252Q194.0875 31.462502 192.91562 32.7125L191.66562 31.384377Z" fill-rule="nonzero"/></svg>